<?xml version="1.0" encoding="UTF-8" standalone="no"?>
<svg
   xmlns:dc="http://purl.org/dc/elements/1.1/"
   xmlns:cc="http://creativecommons.org/ns#"
   xmlns:rdf="http://www.w3.org/1999/02/22-rdf-syntax-ns#"
   xmlns:svg="http://www.w3.org/2000/svg"
   xmlns="http://www.w3.org/2000/svg"
   xmlns:sodipodi="http://sodipodi.sourceforge.net/DTD/sodipodi-0.dtd"
   xmlns:inkscape="http://www.inkscape.org/namespaces/inkscape"
   height="35"
   width="35"
   id="svg12"
   xml:space="preserve"
   viewBox="0 0 35 35"
   y="0px"
   x="0px"
   version="1.1"
   sodipodi:docname="bookmark.svg"
   inkscape:version="0.92.2 5c3e80d, 2017-08-06"><sodipodi:namedview
     pagecolor="#ffffff"
     bordercolor="#666666"
     borderopacity="1"
     objecttolerance="10"
     gridtolerance="10"
     guidetolerance="10"
     inkscape:pageopacity="0"
     inkscape:pageshadow="2"
     inkscape:window-width="972"
     inkscape:window-height="588"
     id="namedview9"
     showgrid="false"
     inkscape:zoom="9.53584"
     inkscape:cx="20.060788"
     inkscape:cy="13.801853"
     inkscape:window-x="140"
     inkscape:window-y="0"
     inkscape:window-maximized="0"
     inkscape:current-layer="g6" /><metadata
     id="metadata18"><rdf:RDF><cc:Work
         rdf:about=""><dc:format>image/svg+xml</dc:format><dc:type
           rdf:resource="http://purl.org/dc/dcmitype/StillImage" /><dc:title /></cc:Work></rdf:RDF></metadata><defs
     id="defs16" /><g
     transform="translate(-87,-454.04007)"
     id="g6"
     style="fill:#333333;stroke-width:0.1;stroke-miterlimit:4;stroke-dasharray:none"><path
       style="fill:#333333;stroke-width:0.1;stroke-miterlimit:4;stroke-dasharray:none"
       id="path4"
       d="m 92.345464,488.95444 c 0.210282,0.12016 0.473135,0.11265 0.683418,-0.015 l 11.287658,-6.94683 11.29516,6.94683 c 0.10515,0.0676 0.23282,0.0976 0.35298,0.0976 0.11265,0 0.2253,-0.03 0.32293,-0.0826 0.21028,-0.12016 0.34547,-0.34547 0.34547,-0.5933 v -30.83641 c 0,-1.92258 -1.5621,-3.48467 -3.48468,-3.48467 H 95.484679 C 93.562097,454.04006 92,455.60215 92,457.52473 v 30.83641 c 0,0.24783 0.127671,0.47314 0.345464,0.5933 z m 1.006351,-31.42971 c 0,-1.17908 0.953781,-2.13286 2.132864,-2.13286 H 113.1484 c 1.17908,0 2.13286,0.95378 2.13286,2.13286 v 29.6348 l -10.61175,-6.53378 c -0.10514,-0.0676 -0.23281,-0.0976 -0.35297,-0.0976 -0.12016,0 -0.24032,0.03 -0.35298,0.0976 l -10.611745,6.53378 z" /><path
       d="m 92.880081,488.17671 c 0.200888,0.11477 0.452003,0.10759 0.652892,-0.0139 l 10.783567,-6.63661 10.79077,6.63661 c 0.10042,0.0643 0.22237,0.0932 0.33715,0.0932 0.10769,0 0.21528,-0.0289 0.30851,-0.0793 0.20093,-0.11477 0.33007,-0.33007 0.33007,-0.56679 v -29.45933 c 0,-1.83677 -1.49235,-3.32901 -3.32902,-3.32901 H 95.879102 c -1.836721,0 -3.329061,1.49224 -3.329061,3.32901 v 29.45933 c 0,0.23672 0.121972,0.45202 0.33004,0.56679 z m 0.961403,-30.02612 c 0,-1.12639 0.911186,-2.03759 2.037618,-2.03759 h 16.874918 c 1.12639,0 2.03759,0.9112 2.03759,2.03759 v 28.3113 l -10.13783,-6.24193 c -0.10052,-0.0643 -0.22247,-0.0932 -0.33724,-0.0932 -0.11477,0 -0.22954,0.0289 -0.33725,0.0932 l -10.137806,6.24193 z"
       id="path819"
       style="fill:#333333;stroke-width:0.09553412;stroke-miterlimit:4;stroke-dasharray:none"
       inkscape:connector-curvature="0" /></g><text
     style="font-weight:bold;font-size:5px;font-family:'Helvetica Neue', Helvetica, Arial-Unicode, Arial, Sans-serif;fill:#000000"
     id="text8"
     font-weight="bold"
     font-size="5px"
     y="55.332813"
     x="1.8983052">Created by Karan</text>
<text
     style="font-weight:bold;font-size:5px;font-family:'Helvetica Neue', Helvetica, Arial-Unicode, Arial, Sans-serif;fill:#000000"
     id="text10"
     font-weight="bold"
     font-size="5px"
     y="60.332813"
     x="1.8983052">from the Noun Project</text>
</svg>