<?xml version="1.0" encoding="UTF-8" standalone="no"?>
<svg
   xmlns:dc="http://purl.org/dc/elements/1.1/"
   xmlns:cc="http://creativecommons.org/ns#"
   xmlns:rdf="http://www.w3.org/1999/02/22-rdf-syntax-ns#"
   xmlns:svg="http://www.w3.org/2000/svg"
   xmlns="http://www.w3.org/2000/svg"
   xmlns:sodipodi="http://sodipodi.sourceforge.net/DTD/sodipodi-0.dtd"
   xmlns:inkscape="http://www.inkscape.org/namespaces/inkscape"
   version="1.1"
   x="0px"
   y="0px"
   viewBox="0 0 35 35"
   xml:space="preserve"
   id="svg12"
   sodipodi:docname="tab.svg"
   inkscape:version="0.92.2 5c3e80d, 2017-08-06"
   width="35"
   height="35"><metadata
     id="metadata18"><rdf:RDF><cc:Work
         rdf:about=""><dc:format>image/svg+xml</dc:format><dc:type
           rdf:resource="http://purl.org/dc/dcmitype/StillImage" /><dc:title /></cc:Work></rdf:RDF></metadata><defs
     id="defs16" /><sodipodi:namedview
     pagecolor="#909090"
     bordercolor="#666666"
     borderopacity="1"
     objecttolerance="10"
     gridtolerance="10"
     guidetolerance="10"
     inkscape:pageopacity="0"
     inkscape:pageshadow="2"
     inkscape:window-width="1116"
     inkscape:window-height="780"
     id="namedview14"
     showgrid="false"
     inkscape:zoom="8.34386"
     inkscape:cx="12.999078"
     inkscape:cy="19.556886"
     inkscape:window-x="64"
     inkscape:window-y="0"
     inkscape:window-maximized="0"
     inkscape:current-layer="g877"
     fit-margin-top="0"
     fit-margin-left="0"
     fit-margin-right="0"
     fit-margin-bottom="0"
     inkscape:pagecheckerboard="true" /><g
     id="g6"
     transform="translate(-87,-454.04007)"
     style="fill:#333333"><g
       id="g877"
       transform="matrix(1,0,0,-1,0,943.6815)"><path
         style="opacity:1;fill:none;fill-opacity:1;fill-rule:nonzero;stroke:#333333;stroke-width:3.43918395;stroke-linecap:butt;stroke-linejoin:round;stroke-miterlimit:4;stroke-dasharray:none;stroke-dashoffset:0;stroke-opacity:1;paint-order:markers fill stroke"
         d="m 4.046875,3.9941406 c -0.831,0 -1.5,0.669 -1.5,1.5 V 24.273438 c 0,0.118279 0.017324,0.231543 0.042969,0.341796 v 4.558594 c 0,1.10517 0.8889706,1.994141 1.9941406,1.994141 h 6.7871094 c 1.10516,0 1.99414,-0.888971 1.99414,-1.994141 v -5.40039 h 17.574219 c 0.831,0 1.5,-0.669 1.5,-1.5 V 5.4941406 c 0,-0.831 -0.669,-1.5 -1.5,-1.5 z"
         transform="matrix(1,0,0,-1,87,489.64143)"
         id="rect864"
         inkscape:connector-curvature="0"
         sodipodi:nodetypes="ssscsssscsssss" /><path
         style="opacity:1;fill:none;fill-opacity:1;fill-rule:nonzero;stroke:#333333;stroke-width:3.43918395;stroke-linecap:butt;stroke-linejoin:round;stroke-miterlimit:4;stroke-dasharray:none;stroke-dashoffset:0;stroke-opacity:1;paint-order:markers fill stroke"
         d="m 102.36089,458.47363 c -1.10517,0 -1.99488,0.88972 -1.99488,1.99489 l -7.8e-4,5.39947 h 10.77705 l 7.8e-4,-5.39947 c 1.6e-4,-1.10517 -0.88972,-1.99489 -1.99488,-1.99489 z"
         id="path881"
         inkscape:connector-curvature="0"
         sodipodi:nodetypes="ssccsss" /></g></g></svg>